<svg width="289" height="61" viewBox="0 0 289 61" fill="none" xmlns="http://www.w3.org/2000/svg">
<path d="M99.9631 46.5369C103.96 46.5369 106.048 44.3892 106.764 42.8977H106.943V46H110.463V30.9062C110.463 23.6278 104.915 22.7926 101.991 22.7926C98.5312 22.7926 94.5938 23.9858 92.804 28.1619L96.1449 29.3551C96.9205 27.6847 98.755 25.8949 102.111 25.8949C105.347 25.8949 106.943 27.6101 106.943 30.5483V30.6676C106.943 32.3679 105.213 32.2188 101.037 32.7557C96.7862 33.3075 92.1477 34.2472 92.1477 39.4972C92.1477 43.9716 95.608 46.5369 99.9631 46.5369ZM100.5 43.375C97.696 43.375 95.6676 42.1222 95.6676 39.6761C95.6676 36.9915 98.1136 36.1562 100.858 35.7983C102.349 35.6193 106.347 35.2017 106.943 34.4858V37.7074C106.943 40.571 104.676 43.375 100.5 43.375ZM120.827 32.2188C120.827 28.2216 123.303 25.9545 126.674 25.9545C129.94 25.9545 131.924 28.0874 131.924 31.6818V46H135.444V31.4432C135.444 25.5966 132.327 22.7926 127.688 22.7926C124.228 22.7926 122.08 24.3438 121.006 26.6705H120.708V23.0909H117.308V46H120.827V32.2188ZM152.259 23.0909H147.367V17.6023H143.847V23.0909H140.387V26.0739H143.847V40.392C143.847 44.3892 147.069 46.2983 150.052 46.2983C151.364 46.2983 152.199 46.0597 152.677 45.8807L151.961 42.7188C151.662 42.7784 151.185 42.8977 150.41 42.8977C148.858 42.8977 147.367 42.4205 147.367 39.4375V26.0739H152.259V23.0909ZM165.431 46.3281C168.891 46.3281 170.95 44.4041 171.874 42.2862H172.098V46H179.317V15.4545H172.023V27.0135H171.874C171.009 24.9105 169.011 22.7926 165.401 22.7926C160.614 22.7926 156.273 26.4766 156.273 34.5604C156.273 42.3608 160.375 46.3281 165.431 46.3281ZM167.967 40.6456C165.267 40.6456 163.761 38.2443 163.761 34.5455C163.761 30.8615 165.252 28.4901 167.967 28.4901C170.636 28.4901 172.188 30.8018 172.188 34.5455C172.188 38.2592 170.622 40.6456 167.967 40.6456ZM184.349 46H191.643V23.0909H184.349V46ZM188.003 20.4212C190.076 20.4212 191.747 18.8551 191.747 16.9311C191.747 15.0071 190.076 13.456 188.003 13.456C185.945 13.456 184.26 15.0071 184.26 16.9311C184.26 18.8551 185.945 20.4212 188.003 20.4212ZM207.384 55.0682C214.289 55.0682 219.002 51.9212 219.002 46.0895V23.0909H211.739V27.0135H211.53C210.65 24.9105 208.651 22.7926 205.042 22.7926C200.254 22.7926 195.914 26.4766 195.914 34.5156C195.914 42.3011 200.046 45.6868 205.072 45.6868C208.443 45.6868 210.695 44.1207 211.56 42.0028H211.813V46.0298C211.813 48.9531 210.024 50.0121 207.578 50.0121C205.236 50.0121 203.834 49.1172 203.446 47.7003L196.541 48.0881C197.078 52.1001 200.851 55.0682 207.384 55.0682ZM207.607 40.3771C204.908 40.3771 203.401 38.1847 203.401 34.5156C203.401 30.8615 204.893 28.4901 207.607 28.4901C210.277 28.4901 211.828 30.8018 211.828 34.5156C211.828 38.1996 210.262 40.3771 207.607 40.3771ZM224.072 46H231.365V23.0909H224.072V46ZM227.726 20.4212C229.799 20.4212 231.47 18.8551 231.47 16.9311C231.47 15.0071 229.799 13.456 227.726 13.456C225.668 13.456 223.983 15.0071 223.983 16.9311C223.983 18.8551 225.668 20.4212 227.726 20.4212ZM249.359 23.0909H245.227V17.6023H237.934V23.0909H234.906V28.4602H237.934V39.6016C237.889 44.2401 240.902 46.5668 246.048 46.3281C247.808 46.2386 249.075 45.8807 249.776 45.6719L248.673 40.407C248.359 40.4815 247.629 40.6307 247.077 40.6307C245.898 40.6307 245.227 40.1534 245.227 38.7962V28.4602H249.359V23.0909ZM259.958 46.3878C263.15 46.3878 265.357 45.1499 266.61 42.8082H266.789V46H273.65V30.429C273.65 25.5817 269.339 22.7926 263.508 22.7926C257.348 22.7926 253.858 25.8949 253.276 30.071L260.003 30.3097C260.316 28.848 261.524 27.9531 263.448 27.9531C265.238 27.9531 266.371 28.8182 266.371 30.3544V30.429C266.371 31.831 264.85 32.1293 260.942 32.4723C256.304 32.8601 252.426 34.5753 252.426 39.6463C252.426 44.1804 255.573 46.3878 259.958 46.3878ZM262.21 41.6151C260.525 41.6151 259.332 40.8097 259.332 39.2884C259.332 37.8118 260.495 36.9169 262.568 36.6037C263.925 36.4098 265.596 36.1115 266.416 35.679V37.8565C266.416 40.0938 264.537 41.6151 262.21 41.6151ZM285.823 15.4545H278.529V46H285.823V15.4545Z" fill="black"/>
<path fill-rule="evenodd" clip-rule="evenodd" d="M0.0499554 16.3437C0.0711416 4.35717 12.7055 -3.53437 23.6735 1.58824L49.5219 13.6608C61.3206 19.1714 62.3237 35.3768 51.2926 42.2669L25.3942 58.4431C14.3631 65.3333 -0.0227638 57.4868 2.70458e-05 44.5924L0.0499554 16.3437ZM18.3687 12.6762C15.6267 11.3956 12.4681 13.3684 12.4628 16.3651L12.4129 44.6138C12.4072 47.8374 16.0036 49.799 18.7614 48.0765L44.6598 31.9003C47.4175 30.1777 47.1668 26.1264 44.2171 24.7487L18.3687 12.6762Z" fill="#1D4ED8"/>
<path d="M33.2893 29.2411C33.2893 33.7567 29.5844 37.4173 25.0141 37.4173C20.4438 37.4173 16.7388 33.7567 16.7388 29.2411C16.7388 24.7255 20.4438 21.0648 25.0141 21.0648C29.5844 21.0648 33.2893 24.7255 33.2893 29.2411Z" fill="#1D4ED8"/>
</svg>
