<svg width="512" height="512" viewBox="0 0 512 512" fill="none" xmlns="http://www.w3.org/2000/svg">
<path fill-rule="evenodd" clip-rule="evenodd" d="M47.3539 155.745C47.504 70.8573 137.015 14.9697 214.721 51.2479L397.85 136.745C481.441 175.771 488.548 290.537 410.395 339.333L226.912 453.892C148.759 502.688 46.8387 447.12 47.0002 355.802L47.3539 155.745ZM177.137 129.772C157.711 120.703 135.333 134.675 135.296 155.897L134.942 355.954C134.902 378.783 160.382 392.675 179.92 380.476L363.403 265.917C382.941 253.718 381.165 225.026 360.267 215.27L177.137 129.772Z" fill="#1D4ED8"/>
<path d="M282.846 247.084C282.846 279.064 256.598 304.988 224.218 304.988C191.839 304.988 165.59 279.064 165.59 247.084C165.59 215.105 191.839 189.18 224.218 189.18C256.598 189.18 282.846 215.105 282.846 247.084Z" fill="#1D4ED8"/>
</svg>
