<svg width="32" height="32" viewBox="0 0 32 32" fill="none" xmlns="http://www.w3.org/2000/svg">
<path fill-rule="evenodd" clip-rule="evenodd" d="M2 8.75237C2 3.08404 7.91448 -0.663203 13.0697 1.73896L26.5197 8.00623C32.1267 10.6189 32.5684 18.3921 27.2932 21.6181L13.8431 29.8431C8.66278 33.0111 2.00001 29.2989 2.00001 23.2447L2 8.75237ZM10.8731 6.41456C9.15473 5.61384 7.18322 6.86292 7.18323 8.75237L7.18323 23.2447C7.18324 25.2628 9.40416 26.5002 11.1309 25.4442L24.581 17.2191C26.3394 16.1438 26.1922 13.5527 24.3232 12.6818L10.8731 6.41456Z" fill="#45A6FF"/>
<path d="M18.5863 15.4371C18.5863 17.7179 16.7298 19.5668 14.4397 19.5668C12.1496 19.5668 10.2931 17.7179 10.2931 15.4371C10.2931 13.1564 12.1496 11.3075 14.4397 11.3075C16.7298 11.3075 18.5863 13.1564 18.5863 15.4371Z" fill="#45A6FF"/>
</svg>
